<svg width="274" height="242" viewBox="0 0 274 242" fill="none" xmlns="http://www.w3.org/2000/svg">
<path d="M230.017 50.8536C237.926 51.6226 254.469 49.0741 257.369 32.7285C260.269 16.383 268.025 11.8572 271.54 11.6375" stroke="#F3603F" stroke-width="3" stroke-linecap="round"/>
<circle cx="159.781" cy="117.527" r="79.0761" fill="#53B175"/>
<g filter="url(#filter0_d_125_991)">
<circle cx="159.781" cy="117.527" r="68.1416" stroke="white" stroke-opacity="0.7" stroke-width="2"/>
</g>
<path d="M194.921 100.227C194.921 102.38 194.077 104.459 192.54 105.944L156.824 140.543C155.211 142.028 153.06 142.919 150.833 142.919C148.605 142.919 146.454 142.028 144.918 140.543L127.021 123.244C125.485 121.759 124.64 119.68 124.64 117.527C124.64 115.374 125.562 113.369 127.098 111.81C128.711 110.325 130.785 109.508 133.013 109.434C135.24 109.434 137.314 110.251 138.927 111.736L150.833 123.244L180.635 94.4361C182.248 92.9511 184.322 92.1344 186.549 92.1344C188.777 92.2086 190.851 93.0254 192.464 94.5845C194 96.0695 194.921 98.0741 194.921 100.227Z" fill="white"/>
<path d="M218.988 196.603C226.37 198.736 240.642 206.839 238.673 222.193" stroke="#F7B23B" stroke-width="3" stroke-linecap="round" stroke-linejoin="round"/>
<path d="M2.46179 174.935C13.7901 179.202 38.2121 182.262 45.274 160.37M45.274 160.37C46.3039 154.338 45.2741 142.407 32.916 142.936C30.562 148.748 29.738 160.37 45.274 160.37ZM45.274 160.37C50.4232 161.326 62.3989 160.414 69.1076 149.115" stroke="#6E89FA" stroke-width="3" stroke-linecap="round" stroke-linejoin="round"/>
<circle cx="182.232" cy="233.423" r="7.57962" fill="#637BFE"/>
<circle cx="253.887" cy="113.396" r="7.07962" stroke="#C05EFD"/>
<circle cx="133.568" cy="8.99576" r="8.30033" fill="#53B175"/>
<circle cx="157.135" cy="23.0056" r="4.38348" fill="#F3603F"/>
<circle cx="60.5206" cy="87.3808" r="7.18199" stroke="#F7B23B"/>
<circle cx="78.1656" cy="208.512" r="7.94695" stroke="#53B175"/>
<circle r="4.03543" transform="matrix(-1 0 0 1 158.665 224.731)" fill="#53B175"/>
<defs>
<filter id="filter0_d_125_991" x="86.6394" y="47.3853" width="146.283" height="146.283" filterUnits="userSpaceOnUse" color-interpolation-filters="sRGB">
<feFlood flood-opacity="0" result="BackgroundImageFix"/>
<feColorMatrix in="SourceAlpha" type="matrix" values="0 0 0 0 0 0 0 0 0 0 0 0 0 0 0 0 0 0 127 0" result="hardAlpha"/>
<feOffset dy="3"/>
<feGaussianBlur stdDeviation="2"/>
<feColorMatrix type="matrix" values="0 0 0 0 0 0 0 0 0 0 0 0 0 0 0 0 0 0 0.12 0"/>
<feBlend mode="normal" in2="BackgroundImageFix" result="effect1_dropShadow_125_991"/>
<feBlend mode="normal" in="SourceGraphic" in2="effect1_dropShadow_125_991" result="shape"/>
</filter>
</defs>
</svg>
